<?xml version="1.0" encoding="utf-8"?>
<!-- Generator: Adobe Illustrator 25.1.0, SVG Export Plug-In . SVG Version: 6.00 Build 0)  -->
<svg version="1.1" id="Layer_1" xmlns="http://www.w3.org/2000/svg" xmlns:xlink="http://www.w3.org/1999/xlink" x="0px" y="0px"
	 viewBox="0 0 600 236.16" style="enable-background:new 0 0 600 236.16;" xml:space="preserve">
<style type="text/css">
	.st0{fill:#EE4431;}
	.st1{fill:#FFFFFF;}
</style>
<path d="M552.71,13.65L552.71,13.65c0,6.43-5.21,11.63-11.63,11.63h-40.9c-2.85,0-5.16,2.31-5.16,5.16v74.7
	c0,2.85,2.31,5.16,5.16,5.16h88.19c6.42,0,11.63,5.21,11.63,11.63v0c0,6.42-5.21,11.63-11.63,11.63h-99.51
	c-11.26,0-20.4-9.13-20.4-20.4V22.41c0-11.26,9.13-20.4,20.4-20.4h52.22C547.5,2.02,552.71,7.22,552.71,13.65z"/>
<path d="M534.22,49.3L534.22,49.3c-10.21,0-18.48,8.28-18.48,18.48v0c0,10.21,8.28,18.48,18.48,18.48h0
	c10.21,0,18.48-8.28,18.48-18.48v0C552.71,57.58,544.43,49.3,534.22,49.3z"/>
<path d="M3.68,100.86c4.63-4.5,11.95-4.48,16.67-0.07c8.62,8.06,19.03,12.25,30.04,12.25c13.74,0,23.82-6.05,23.82-17.22
	c0-12.09-12.46-13.74-32.24-18.14C22.35,73.1,1.1,66.87,1.1,40.85C1.1,15.76,22.72,0,50.02,0c16.57,0,30.11,5.3,40.23,13.1
	c5.82,4.48,6.27,13.1,0.99,18.21l0,0c-4.43,4.29-11.36,4.53-16.12,0.6c-7-5.78-15.3-9.38-25.84-9.38
	c-12.82,0-21.62,6.23-21.62,15.76c0,10.26,9.53,12.27,26.75,16.12c20.89,4.58,46.53,9.89,46.53,38.66c0,26.56-23.45,42.5-51.48,42.5
	c-17.4,0-34.13-6.72-45.67-17.32C-1.25,113.61-1.24,105.63,3.68,100.86L3.68,100.86z"/>
<path d="M323.26,2.02L323.26,2.02c-7.13,0-12.92,5.78-12.92,12.92v64.54c0,2.65-3.44,3.69-4.91,1.49L258.18,10.3
	c-3.28-4.9-8.68-8.13-14.58-8.28c-10.04-0.26-18.26,7.8-18.26,17.79v85.33c0,2.85-2.31,5.16-5.16,5.16h-68.83
	c-2.85,0-5.16-2.31-5.16-5.16v-74.7c0-2.85,2.31-5.16,5.16-5.16l40.51,0c6.41,0,11.9-5.01,12.02-11.42
	c0.12-6.52-5.13-11.85-11.63-11.85h-54.87c-9.8,0-17.75,7.95-17.75,17.75v96.04c0,9.8,7.95,17.75,17.75,17.75h90.52
	c4.12,0,7.98-1.08,11.33-2.95c4.12-2.09,7.44-5.36,9.52-10.04c1.53-3.1,2.41-6.58,2.41-10.27V51.03c0-2.47,3.19-3.45,4.58-1.41
	l52.41,77.22c2.85,4.2,7.6,6.72,12.68,6.72h0c8.47,0,15.33-6.86,15.33-15.33V14.93C336.18,7.8,330.4,2.02,323.26,2.02z"/>
<path d="M355.03,100.86c4.89-4.74,12.55-4.7,17.59-0.12c8.74,7.96,19.39,12.29,30.25,12.29c13.74,0,23.82-6.05,23.82-17.22
	c0-12.09-12.46-13.74-32.24-18.14c-19.6-4.58-40.85-10.81-40.85-36.82C353.58,15.76,375.2,0,402.5,0c16.5,0,30.39,5.32,40.27,13.28
	c5.72,4.61,6.08,13.22,0.83,18.36l0,0c-4.59,4.5-11.94,4.79-16.72,0.49c-6.61-5.95-14.76-9.6-25.1-9.6
	c-12.82,0-21.62,6.23-21.62,15.76c0,10.26,9.53,12.27,26.75,16.12c20.89,4.58,46.53,9.89,46.53,38.66c0,26.56-23.45,42.5-51.48,42.5
	c-16.86,0-34.25-5.83-46.29-15.63c-5.88-4.79-6.2-13.66-0.76-18.94L355.03,100.86z"/>
<path d="M185.4,49.3L185.4,49.3c-10.21,0-18.48,8.28-18.48,18.48v0c0,10.21,8.28,18.48,18.48,18.48h0
	c10.21,0,18.48-8.28,18.48-18.48v0C203.89,57.58,195.61,49.3,185.4,49.3z"/>
<path class="st0" d="M261.45,236.16h317.58c11.58,0,20.96-9.38,20.96-20.96v-37.42c0-11.58-9.38-20.96-20.96-20.96H261.45
	c-11.58,0-20.96,9.38-20.96,20.96v37.42C240.49,226.78,249.88,236.16,261.45,236.16z"/>
<g>
	<path class="st1" d="M372.99,204.61c3.31,4.68,8.11,7.3,13.04,7.3c4.68,0,8.11-2.06,8.11-5.86c0-4.12-4.24-4.68-10.98-6.18
		c-6.68-1.56-13.92-3.68-13.92-12.54c0-8.55,7.36-13.92,16.66-13.92c7.74,0,13.79,3.43,16.91,7.93l-6.05,5.93
		c-2.62-3.68-6.12-6.18-11.11-6.18c-4.37,0-7.36,2.12-7.36,5.37c0,3.5,3.24,4.18,9.11,5.49c7.11,1.56,15.85,3.37,15.85,13.17
		c0,9.05-7.99,14.48-17.54,14.48c-7.55,0-15.41-3.43-19.03-8.86L372.99,204.61z"/>
	<path class="st1" d="M409.45,193.37h-4.37v-7.3h4.37v-9.36h8.61v9.36h6.68v7.3h-6.68v15.16c0,2.81,1.56,3.18,4.12,3.18
		c1.25,0,1.87-0.06,2.99-0.19v7.24c-1.56,0.31-3.43,0.5-5.62,0.5c-6.62,0-10.11-2.18-10.11-8.93V193.37z"/>
	<path class="st1" d="M458.7,218.9h-8.74v-3.37c-1.81,2.12-4.68,4.06-8.86,4.06c-6.8,0-11.17-4.68-11.17-11.79v-21.72h8.74v19.78
		c0,3.62,1.62,5.99,5.24,5.99c3.06,0,6.05-2.25,6.05-6.49v-19.28h8.74V218.9z"/>
	<path class="st1" d="M463.95,202.48c0-9.3,5.24-17.04,14.29-17.04c4.12,0,7.24,1.62,9.17,3.99v-15.35h8.74v44.81h-8.74v-3.37
		c-1.94,2.43-5.06,4.06-9.17,4.06C469.2,219.58,463.95,211.84,463.95,202.48z M480.3,192.93c-4.93,0-7.55,3.93-7.55,9.55
		c0,5.68,2.62,9.61,7.55,9.61c4.18,0,7.3-3.12,7.3-8.67v-1.81C487.61,195.99,484.49,192.93,480.3,192.93z"/>
	<path class="st1" d="M503.28,174.09h8.92v8.11h-8.92V174.09z M512.14,218.9h-8.74v-32.83h8.74V218.9z"/>
	<path class="st1" d="M533.49,219.58c-9.49,0-16.1-6.86-16.1-17.1c0-10.17,6.61-17.04,16.1-17.04s16.1,6.86,16.1,17.04
		C549.59,212.72,542.98,219.58,533.49,219.58z M533.49,212.34c4.56,0,7.36-3.62,7.36-9.86c0-6.18-2.81-9.8-7.36-9.8
		c-4.55,0-7.42,3.62-7.42,9.8C526.07,208.72,528.94,212.34,533.49,212.34z"/>
</g>
<path d="M588.36,2.02h-14.42c-6.42,0-11.63,5.21-11.63,11.63v0c0,6.43,5.21,11.63,11.63,11.63h14.42c6.42,0,11.63-5.21,11.63-11.63
	v0C599.99,7.22,594.78,2.02,588.36,2.02z"/>
</svg>
