<?xml version="1.0" encoding="utf-8"?>
<!-- Generator: Adobe Illustrator 25.1.0, SVG Export Plug-In . SVG Version: 6.00 Build 0)  -->
<svg version="1.1" id="Layer_1" xmlns="http://www.w3.org/2000/svg" xmlns:xlink="http://www.w3.org/1999/xlink" x="0px"
	  y="0px"
			 viewBox="0 0 600 285" style="enable-background:new 0 0 600 236.16;" xml:space="preserve">>
			<rect width="100%" height="100%" fill="white" rx="25" />
	<g>
		<svg version="1.1" id="Layer_1" xmlns="http://www.w3.org/2000/svg" xmlns:xlink="http://www.w3.org/1999/xlink"
			 width="85%" height="80%" x="7.5%" y="10%"
			 viewBox="0 0 600 236.16" style="enable-background:new 0 0 600 236.16;" xml:space="preserve">
		<style type="text/css">
			.st0{fill:#FFFFFF;}
			.st1{fill:#EE4431;}
		</style>
		<g>
			<g>
				<path d="M311.27,236.16H580.6c10.72,0,19.4-8.69,19.4-19.4v-40.53c0-10.72-8.69-19.4-19.4-19.4H311.27
					c-10.72,0-19.4,8.69-19.4,19.4v40.53C291.87,227.47,300.56,236.16,311.27,236.16z"/>
				<g>
					<path class="st0" d="M438.98,211.53c4.87,0,8.43-3.06,9.67-8.05l8.61,2.87c-2.62,8.11-8.99,13.23-18.28,13.23
						c-12.11,0-20.91-9.55-20.91-23.09c0-13.54,8.8-23.09,20.91-23.09c9.3,0,15.66,5.12,18.28,13.23l-8.61,2.87
						c-1.25-4.99-4.8-8.05-9.67-8.05c-6.87,0-11.67,5.93-11.67,15.04S432.12,211.53,438.98,211.53z"/>
					<path class="st0" d="M476.13,219.58c-9.49,0-16.1-6.87-16.1-17.1c0-10.17,6.61-17.04,16.1-17.04c9.49,0,16.1,6.87,16.1,17.04
						C492.23,212.72,485.61,219.58,476.13,219.58z M476.13,212.34c4.56,0,7.36-3.62,7.36-9.86c0-6.18-2.81-9.8-7.36-9.8
						c-4.55,0-7.42,3.62-7.42,9.8C468.7,208.72,471.57,212.34,476.13,212.34z"/>
					<path class="st0" d="M517.14,194.56c-1-0.12-1.75-0.19-2.81-0.19c-4.56,0-8.05,2.81-8.05,7.87v16.66h-8.74v-32.83h8.74v4.62
						c1.43-2.87,4.68-4.81,8.74-4.81c0.87,0,1.5,0.06,2.12,0.13V194.56z"/>
					<path class="st0" d="M518.65,202.48c0-9.67,6.68-17.04,15.98-17.04c9.73,0,14.98,7.24,14.98,16.41v2.56h-22.59
						c0.62,4.99,3.68,7.99,7.99,7.99c3.37,0,6.06-1.62,7.05-4.81l7.36,2.62c-2.37,5.99-7.92,9.36-14.48,9.36
						C525.26,219.58,518.65,212.66,518.65,202.48z M527.32,198.49h13.6c-0.06-3.25-2.12-6.05-6.37-6.05
						C531.07,192.44,528.38,194.49,527.32,198.49z"/>
				</g>
			</g>
			<path d="M552.71,13.65L552.71,13.65c0,6.43-5.21,11.63-11.63,11.63h-40.9c-2.85,0-5.16,2.31-5.16,5.16v74.7
				c0,2.85,2.31,5.16,5.16,5.16h88.19c6.42,0,11.63,5.21,11.63,11.63v0c0,6.42-5.21,11.63-11.63,11.63h-99.51
				c-11.26,0-20.4-9.13-20.4-20.4V22.41c0-11.26,9.13-20.4,20.4-20.4h52.22C547.5,2.02,552.71,7.22,552.71,13.65z"/>
			<path d="M534.23,49.3L534.23,49.3c-10.21,0-18.48,8.28-18.48,18.48v0c0,10.21,8.28,18.48,18.48,18.48l0,0
				c10.21,0,18.48-8.28,18.48-18.48v0C552.71,57.58,544.44,49.3,534.23,49.3z"/>
			<path d="M3.68,100.86c4.63-4.5,11.95-4.48,16.67-0.07c8.62,8.06,19.03,12.25,30.04,12.25c13.74,0,23.82-6.05,23.82-17.22
				c0-12.09-12.46-13.74-32.24-18.14C22.35,73.1,1.1,66.87,1.1,40.86C1.1,15.76,22.72,0,50.02,0c16.57,0,30.11,5.3,40.23,13.1
				c5.82,4.48,6.27,13.1,0.99,18.21l0,0c-4.43,4.29-11.36,4.53-16.12,0.6c-7-5.78-15.3-9.38-25.84-9.38
				c-12.82,0-21.62,6.23-21.62,15.76c0,10.26,9.53,12.27,26.75,16.12c20.89,4.58,46.53,9.89,46.53,38.66
				c0,26.56-23.45,42.5-51.48,42.5c-17.4,0-34.13-6.72-45.67-17.32C-1.25,113.61-1.24,105.63,3.68,100.86L3.68,100.86z"/>
			<path d="M323.27,2.02L323.27,2.02c-7.13,0-12.92,5.78-12.92,12.92v64.54c0,2.65-3.44,3.69-4.91,1.49L258.18,10.3
				c-3.28-4.9-8.68-8.13-14.58-8.28c-10.04-0.26-18.26,7.8-18.26,17.79v85.33c0,2.85-2.31,5.16-5.16,5.16h-68.83
				c-2.85,0-5.16-2.31-5.16-5.16v-74.7c0-2.85,2.31-5.16,5.16-5.16l40.51,0c6.41,0,11.9-5.01,12.02-11.42
				c0.12-6.52-5.13-11.85-11.63-11.85h-54.87c-9.8,0-17.75,7.95-17.75,17.75v96.04c0,9.8,7.95,17.75,17.75,17.75h90.52
				c4.12,0,7.98-1.08,11.33-2.95c4.12-2.09,7.44-5.36,9.52-10.04c1.53-3.1,2.41-6.58,2.41-10.27V51.03c0-2.47,3.19-3.45,4.58-1.41
				l52.41,77.22c2.85,4.2,7.6,6.72,12.68,6.72h0c8.47,0,15.33-6.86,15.33-15.33V14.93C336.18,7.8,330.4,2.02,323.27,2.02z"/>
			<path d="M355.04,100.86c4.89-4.74,12.55-4.7,17.59-0.12c8.74,7.96,19.39,12.29,30.25,12.29c13.74,0,23.82-6.05,23.82-17.22
				c0-12.09-12.46-13.74-32.24-18.14c-19.6-4.58-40.86-10.81-40.86-36.82C353.59,15.76,375.21,0,402.5,0
				c16.5,0,30.39,5.32,40.27,13.28c5.72,4.61,6.08,13.22,0.83,18.36l0,0c-4.59,4.5-11.94,4.79-16.72,0.49
				c-6.61-5.95-14.76-9.6-25.1-9.6c-12.82,0-21.62,6.23-21.62,15.76c0,10.26,9.53,12.27,26.75,16.12
				c20.89,4.58,46.53,9.89,46.53,38.66c0,26.56-23.45,42.5-51.48,42.5c-16.86,0-34.25-5.83-46.29-15.63
				c-5.88-4.79-6.2-13.66-0.76-18.94L355.04,100.86z"/>
			<path d="M185.41,49.3L185.41,49.3c-10.21,0-18.48,8.28-18.48,18.48v0c0,10.21,8.28,18.48,18.48,18.48h0
				c10.21,0,18.48-8.28,18.48-18.48v0C203.89,57.58,195.61,49.3,185.41,49.3z"/>
			<path class="st1" d="M588.37,2.02h-14.42c-6.43,0-11.63,5.21-11.63,11.63v0c0,6.43,5.21,11.63,11.63,11.63h14.42
				c6.43,0,11.63-5.21,11.63-11.63v0C600,7.22,594.79,2.02,588.37,2.02z"/>
		</g>
		</svg>
	</g>
</svg>
